<svg id="Layer_1" data-name="Layer 1" xmlns="http://www.w3.org/2000/svg" viewBox="0 0 2339.53 2242.09"><defs><style>.cls-1{fill:#070707;opacity:0.3;}.cls-2{fill:#a8902c;}.cls-3{fill:#c4a835;stroke:#a8902c;}.cls-3,.cls-5{stroke-miterlimit:10;stroke-width:30px;}.cls-4{fill:#9b916a;}.cls-5{fill:#c1b581;stroke:#9b916a;}.cls-10,.cls-6{opacity:0.2;}.cls-7,.cls-8,.cls-9{font-size:250px;font-family:Helvetica-Bold, Helvetica;font-weight:700;}.cls-7{fill:#020202;}.cls-12,.cls-8{fill:#fcfcfa;}.cls-13,.cls-9{fill:#d6d6d6;}.cls-10{fill:#0a0a0a;}.cls-11{fill:#eae539;}</style></defs><title>levels</title><path class="cls-1" d="M827.88,621.8A155.37,155.37,0,0,1,672.51,777.17c-20.64,0-72.53,0-92.88,0C522.75,754.06,517.15,687,517.15,621.8a155.37,155.37,0,0,1,310.73,0Z"/><path class="cls-2" d="M769.94,607.12a170.06,170.06,0,0,1-340.12,0c0-33.75.17-33.72,0-57.55,30.23-47.16,109.89-112.51,170.06-112.51,58.7,0,139.49,66.52,170.06,111.76C770.14,561.07,769.94,571.9,769.94,607.12Z"/><circle class="cls-3" cx="599.88" cy="546.3" r="155.37"/><path class="cls-1" d="M1319.29,621.8a155.37,155.37,0,0,1-155.37,155.37c-20.64,0-72.53,0-92.88,0-56.88-23.08-62.48-90.17-62.48-155.34a155.37,155.37,0,0,1,310.73,0Z"/><path class="cls-4" d="M1261.35,607.12a170.06,170.06,0,0,1-340.11,0c0-33.75.16-33.72,0-57.55,30.22-47.16,109.88-112.51,170-112.51,58.7,0,139.5,66.52,170.06,111.76C1261.55,561.07,1261.35,571.9,1261.35,607.12Z"/><circle class="cls-5" cx="1091.29" cy="546.3" r="155.37"/><path class="cls-1" d="M1810.7,621.8a155.37,155.37,0,0,1-155.37,155.37c-20.64,0-72.53,0-92.88,0C1505.57,754.06,1500,687,1500,621.8a155.37,155.37,0,0,1,310.73,0Z"/><path class="cls-4" d="M1752.76,607.12a170.06,170.06,0,0,1-340.11,0c0-33.75.16-33.72,0-57.55,30.22-47.16,109.88-112.51,170-112.51,58.7,0,139.5,66.52,170.06,111.76C1753,561.07,1752.76,571.9,1752.76,607.12Z"/><circle class="cls-5" cx="1582.7" cy="546.3" r="155.37"/><path class="cls-1" d="M827.88,1132.8a155.37,155.37,0,0,1-155.37,155.37c-20.64,0-72.53,0-92.88,0-56.88-23.08-62.48-90.17-62.48-155.34a155.37,155.37,0,0,1,310.73,0Z"/><path class="cls-4" d="M769.94,1118.12a170.06,170.06,0,0,1-340.12,0c0-33.75.17-33.72,0-57.55,30.23-47.16,109.89-112.51,170.06-112.51,58.7,0,139.49,66.52,170.06,111.76C770.14,1072.07,769.94,1082.9,769.94,1118.12Z"/><circle class="cls-5" cx="599.88" cy="1057.3" r="155.37"/><path class="cls-1" d="M1319.29,1132.8a155.37,155.37,0,0,1-155.37,155.37c-20.64,0-72.53,0-92.88,0-56.88-23.08-62.48-90.17-62.48-155.34a155.37,155.37,0,0,1,310.73,0Z"/><path class="cls-4" d="M1261.35,1118.12a170.06,170.06,0,0,1-340.11,0c0-33.75.16-33.72,0-57.55,30.22-47.16,109.88-112.51,170-112.51,58.7,0,139.5,66.52,170.06,111.76C1261.55,1072.07,1261.35,1082.9,1261.35,1118.12Z"/><circle class="cls-5" cx="1091.29" cy="1057.3" r="155.37"/><path class="cls-1" d="M1810.7,1132.8a155.37,155.37,0,0,1-155.37,155.37c-20.64,0-72.53,0-92.88,0C1505.57,1265.06,1500,1198,1500,1132.8a155.37,155.37,0,0,1,310.73,0Z"/><path class="cls-4" d="M1752.76,1118.12a170.06,170.06,0,0,1-340.11,0c0-33.75.16-33.72,0-57.55,30.22-47.16,109.88-112.51,170-112.51,58.7,0,139.5,66.52,170.06,111.76C1753,1072.07,1752.76,1082.9,1752.76,1118.12Z"/><circle class="cls-5" cx="1582.7" cy="1057.3" r="155.37"/><path class="cls-1" d="M827.88,1643.8a155.37,155.37,0,0,1-155.37,155.37c-20.64,0-72.53,0-92.88,0-56.88-23.08-62.48-90.17-62.48-155.34a155.37,155.37,0,0,1,310.73,0Z"/><path class="cls-4" d="M769.94,1629.12a170.06,170.06,0,0,1-340.12,0c0-33.75.17-33.72,0-57.55,30.23-47.16,109.89-112.51,170.06-112.51,58.7,0,139.49,66.52,170.06,111.76C770.14,1583.07,769.94,1593.9,769.94,1629.12Z"/><circle class="cls-5" cx="599.88" cy="1568.3" r="155.37"/><path class="cls-1" d="M1319.29,1643.8a155.37,155.37,0,0,1-155.37,155.37c-20.64,0-72.53,0-92.88,0-56.88-23.08-62.48-90.17-62.48-155.34a155.37,155.37,0,0,1,310.73,0Z"/><path class="cls-4" d="M1261.35,1629.12a170.06,170.06,0,0,1-340.11,0c0-33.75.16-33.72,0-57.55,30.22-47.16,109.88-112.51,170-112.51,58.7,0,139.5,66.52,170.06,111.76C1261.55,1583.07,1261.35,1593.9,1261.35,1629.12Z"/><circle class="cls-5" cx="1091.29" cy="1568.3" r="155.37"/><path class="cls-1" d="M1810.7,1643.8a155.37,155.37,0,0,1-155.37,155.37c-20.64,0-72.53,0-92.88,0C1505.57,1776.06,1500,1709,1500,1643.8a155.37,155.37,0,0,1,310.73,0Z"/><path class="cls-4" d="M1752.76,1629.12a170.06,170.06,0,0,1-340.11,0c0-33.75.16-33.72,0-57.55,30.22-47.16,109.88-112.51,170-112.51,58.7,0,139.5,66.52,170.06,111.76C1753,1583.07,1752.76,1593.9,1752.76,1629.12Z"/><circle class="cls-5" cx="1582.7" cy="1568.3" r="155.37"/><g class="cls-6"><text class="cls-7" transform="translate(528.41 630.03)">1</text><text class="cls-7" transform="translate(1019.82 630.03)">2</text><text class="cls-7" transform="translate(1511.23 630.03)">3</text><text class="cls-7" transform="translate(528.41 1141.03)">4</text><text class="cls-7" transform="translate(1019.82 1141.03)">5</text><text class="cls-7" transform="translate(1511.23 1141.03)">6</text><text class="cls-7" transform="translate(528.41 1652.03)">7</text><text class="cls-7" transform="translate(1019.82 1652.03)">8</text><text class="cls-7" transform="translate(1511.23 1652.03)">9</text></g><text class="cls-8" transform="translate(528.86 617.04)">1</text><text class="cls-9" transform="translate(1511.68 617.04)">3</text><text class="cls-9" transform="translate(528.86 1128.04)">4</text><text class="cls-9" transform="translate(1511.68 1128.04)">6</text><text class="cls-9" transform="translate(528.86 1639.04)">7</text><text class="cls-9" transform="translate(1020.27 1639.04)">8</text><text class="cls-9" transform="translate(1511.68 1639.04)">9</text><text class="cls-9" transform="translate(1020.27 617.04)">2</text><text class="cls-9" transform="translate(1020.27 1128.04)">5</text><circle class="cls-10" cx="556.02" cy="660.6" r="11.93"/><circle class="cls-10" cx="599.38" cy="660.6" r="11.93"/><circle class="cls-10" cx="642.74" cy="660.6" r="11.93"/><circle class="cls-11" cx="556.02" cy="655.6" r="11.93"/><circle class="cls-12" cx="599.38" cy="655.6" r="11.93"/><circle class="cls-12" cx="642.74" cy="655.6" r="11.93"/><circle class="cls-10" cx="1047.93" cy="658.1" r="11.93"/><circle class="cls-10" cx="1091.29" cy="658.1" r="11.93"/><circle class="cls-10" cx="1134.65" cy="658.1" r="11.93"/><circle class="cls-13" cx="1047.93" cy="653.1" r="11.93"/><circle class="cls-13" cx="1091.29" cy="653.1" r="11.93"/><circle class="cls-13" cx="1134.65" cy="653.1" r="11.93"/><circle class="cls-10" cx="1539.39" cy="655.6" r="11.93"/><circle class="cls-10" cx="1582.75" cy="655.6" r="11.93"/><circle class="cls-10" cx="1626.1" cy="655.6" r="11.93"/><circle class="cls-13" cx="1539.39" cy="650.6" r="11.93"/><circle class="cls-13" cx="1582.75" cy="650.6" r="11.93"/><circle class="cls-13" cx="1626.1" cy="650.6" r="11.93"/><circle class="cls-10" cx="1047.93" cy="1169.84" r="11.93"/><circle class="cls-10" cx="1091.29" cy="1169.84" r="11.93"/><circle class="cls-10" cx="1134.65" cy="1169.84" r="11.93"/><circle class="cls-13" cx="1047.93" cy="1164.84" r="11.93"/><circle class="cls-13" cx="1091.29" cy="1164.84" r="11.93"/><circle class="cls-13" cx="1134.65" cy="1164.84" r="11.93"/><circle class="cls-10" cx="554.57" cy="1169.84" r="11.93"/><circle class="cls-10" cx="597.93" cy="1169.84" r="11.93"/><circle class="cls-10" cx="641.28" cy="1169.84" r="11.93"/><circle class="cls-13" cx="554.57" cy="1164.84" r="11.93"/><circle class="cls-13" cx="597.93" cy="1164.84" r="11.93"/><circle class="cls-13" cx="641.28" cy="1164.84" r="11.93"/><circle class="cls-10" cx="1539.39" cy="1167.34" r="11.93"/><circle class="cls-10" cx="1582.75" cy="1167.34" r="11.93"/><circle class="cls-10" cx="1626.1" cy="1167.34" r="11.93"/><circle class="cls-13" cx="1539.39" cy="1162.34" r="11.93"/><circle class="cls-13" cx="1582.75" cy="1162.34" r="11.93"/><circle class="cls-13" cx="1626.1" cy="1162.34" r="11.93"/><circle class="cls-10" cx="1046.93" cy="1679.98" r="11.93"/><circle class="cls-10" cx="1090.29" cy="1679.98" r="11.93"/><circle class="cls-10" cx="1133.65" cy="1679.98" r="11.93"/><circle class="cls-13" cx="1046.93" cy="1674.98" r="11.93"/><circle class="cls-13" cx="1090.29" cy="1674.98" r="11.93"/><circle class="cls-13" cx="1133.65" cy="1674.98" r="11.93"/><circle class="cls-10" cx="553.57" cy="1679.98" r="11.93"/><circle class="cls-10" cx="596.93" cy="1679.98" r="11.93"/><circle class="cls-10" cx="640.28" cy="1679.98" r="11.93"/><circle class="cls-13" cx="553.57" cy="1674.98" r="11.93"/><circle class="cls-13" cx="596.93" cy="1674.98" r="11.93"/><circle class="cls-13" cx="640.28" cy="1674.98" r="11.93"/><circle class="cls-10" cx="1538.39" cy="1677.48" r="11.93"/><circle class="cls-10" cx="1581.75" cy="1677.48" r="11.93"/><circle class="cls-10" cx="1625.1" cy="1677.48" r="11.93"/><circle class="cls-13" cx="1538.39" cy="1672.48" r="11.93"/><circle class="cls-13" cx="1581.75" cy="1672.48" r="11.93"/><circle class="cls-13" cx="1625.1" cy="1672.48" r="11.93"/></svg>