<svg id="Layer_1" data-name="Layer 1" xmlns="http://www.w3.org/2000/svg" viewBox="0 0 1608.88 479.4"><defs><style>.cls-1{fill:#070707;opacity:0.3;}.cls-2{fill:#b24d9f;}.cls-3{fill:#cc54b0;stroke:#b24d9f;stroke-miterlimit:10;stroke-width:30px;}</style></defs><title>Quiz_steg_3</title><path class="cls-1" d="M423,284.58A155.37,155.37,0,0,1,267.6,440c-20.64,0-72.53,0-92.88,0-56.88-23.07-62.49-90.17-62.49-155.33a155.37,155.37,0,0,1,310.74,0Z"/><path class="cls-2" d="M365,269.89a170.06,170.06,0,1,1-340.11,0c0-33.74.16-33.71,0-57.54C55.14,165.19,134.79,99.84,195,99.84c58.7,0,139.49,66.52,170,111.76C365.23,223.85,365,234.67,365,269.89Z"/><circle class="cls-3" cx="194.97" cy="209.08" r="155.37"/><path class="cls-1" d="M973.75,284.58A155.37,155.37,0,0,1,818.38,440c-20.64,0-72.53,0-92.88,0C668.62,416.84,663,349.74,663,284.58a155.37,155.37,0,1,1,310.73,0Z"/><path class="cls-2" d="M915.8,269.89a170.06,170.06,0,1,1-340.11,0c0-33.74.16-33.71,0-57.54C605.92,165.19,685.58,99.84,745.75,99.84c58.7,0,139.49,66.52,170,111.76C916,223.85,915.8,234.67,915.8,269.89Z"/><circle class="cls-3" cx="745.75" cy="209.08" r="155.37"/><circle class="cls-3" cx="1325.58" cy="264.58" r="155.37"/></svg>