<svg id="Layer_1" data-name="Layer 1" xmlns="http://www.w3.org/2000/svg" viewBox="0 0 1608.88 479.4"><defs><style>.cls-1{fill:#070707;opacity:0.3;}.cls-2{fill:#b24d9f;}.cls-3{fill:#cc54b0;stroke:#b24d9f;stroke-miterlimit:10;stroke-width:30px;}</style></defs><title>Quiz_steg_1</title><path class="cls-1" d="M972.75,284.58A155.37,155.37,0,0,1,817.38,440c-20.64,0-72.53,0-92.88,0C667.62,416.84,662,349.74,662,284.58a155.37,155.37,0,1,1,310.73,0Z"/><path class="cls-2" d="M914.8,269.89a170.06,170.06,0,1,1-340.11,0c0-33.74.16-33.71,0-57.54C604.92,165.19,684.58,99.84,744.75,99.84c58.7,0,139.49,66.52,170,111.76C915,223.85,914.8,234.67,914.8,269.89Z"/><circle class="cls-3" cx="744.75" cy="209.08" r="155.37"/><path class="cls-1" d="M1553.53,284.58A155.37,155.37,0,0,1,1398.16,440c-20.64,0-72.53,0-92.88,0-56.88-23.07-62.48-90.17-62.48-155.33a155.37,155.37,0,1,1,310.73,0Z"/><path class="cls-2" d="M1495.58,269.89a170.06,170.06,0,1,1-340.11,0c0-33.74.16-33.71,0-57.54,30.23-47.16,109.89-112.51,170.06-112.51,58.7,0,139.49,66.52,170,111.76C1495.79,223.85,1495.58,234.67,1495.58,269.89Z"/><circle class="cls-3" cx="1325.53" cy="209.08" r="155.37"/><circle class="cls-3" cx="193.75" cy="264.58" r="155.37"/></svg>