<svg id="Layer_1" data-name="Layer 1" xmlns="http://www.w3.org/2000/svg" viewBox="0 0 1841.63 965"><defs><style>.cls-1{opacity:0.3;}.cls-2{fill:#050505;}.cls-3,.cls-4{font-size:490px;stroke:#aa3b2d;stroke-miterlimit:10;stroke-width:25px;font-family:Helvetica-Bold, Helvetica;font-weight:700;}.cls-3,.cls-5{fill:#aa3b2d;}.cls-4{fill:#c64934;}</style></defs><title>Quiz_logo</title><g class="cls-1"><path class="cls-2" d="M727.31,558.48q-9.3,30.33-27.43,50.39L740.37,647,702,687.1l-40.49,4c1-34-26-30.85-35.39-27.65q-23.72,7.93-56.76,7.93-69,0-114-41.15-54.6-49.53-54.6-145.47,0-96.66,56-146.19,45.69-40.43,113.65-40.43,68.42,0,114.84,42.82,53.59,49.53,53.59,138.53Q738.79,526.67,727.31,558.48Zm-133.7,47.36a120,120,0,0,0,16.51-6l-35.7-34,37.86-39.53,35.85,33.75q8.36-17.22,11.71-30.14,5.26-19.38,5.26-45.21,0-59.32-24.28-91.74t-70.94-32.42q-43.78,0-69.87,31.11t-26.07,93.07q0,72.49,37.33,103.84Q535.45,609,569.19,609A94.66,94.66,0,0,0,593.61,605.84Z"/><path class="cls-2" d="M857.47,400.81V558q0,22.25,5.23,33.5,9.28,19.86,36.43,19.85,34.75,0,47.61-28.23,6.66-15.3,6.67-40.43V400.81h69.14V661.6H956.28V624.75c-.64.8-2.23,3.2-4.77,7.18a48.07,48.07,0,0,1-9.07,10.53q-16,14.35-30.89,19.62t-35,5.26q-57.74,0-77.78-41.63-11.2-23-11.21-67.71V400.81Z"/><path class="cls-2" d="M1158.93,369.7h-69.15V306.78h69.15Zm-69.15,31.11h69.15V661.6h-69.15Z"/><path class="cls-2" d="M1210.13,456.32V400.81h206.24v56.7l-128,148.1h132.51v56H1201V608.48l129.27-152.16Z"/></g><text class="cls-3" transform="translate(335.66 649.27)">Quiz</text><text class="cls-4" transform="translate(335.66 598.78)">Quiz</text><polygon class="cls-5" points="717.22 634.18 717.22 583.8 694.13 593.8 678.13 612.8 697.47 641.8 717.22 634.18"/><polygon class="cls-5" points="515.72 503.63 515.72 549.13 562.22 541.13 530.22 508.38 515.72 503.63"/></svg>
