<svg id="Layer_1" data-name="Layer 1" xmlns="http://www.w3.org/2000/svg" viewBox="0 0 1136.64 498.44"><defs><style>.cls-1{opacity:0.3;}.cls-2{fill:#050505;}.cls-3,.cls-4{font-size:490px;stroke:#2b6ea0;stroke-miterlimit:10;stroke-width:25px;font-family:Helvetica-Bold, Helvetica;font-weight:700;}.cls-3,.cls-5{fill:#2b6ea0;}.cls-4{fill:#3580c4;}</style></defs><title>Quiz_logo_Video</title><g class="cls-1"><path class="cls-2" d="M409.35,353.87q-9.3,30.35-27.42,50.4l40.49,38.13L384,482.5l-40.48,4c1-34-26-30.86-35.4-27.65q-23.72,7.92-56.76,7.92-69,0-114-41.15-54.6-49.53-54.6-145.47,0-96.66,56-146.18,45.7-40.44,113.65-40.44,68.43,0,114.85,42.83,53.58,49.53,53.59,138.53Q420.84,322,409.35,353.87Zm-133.7,47.37a121.38,121.38,0,0,0,16.52-6l-35.7-34,37.86-39.52,35.84,33.75q8.37-17.22,11.72-30.14,5.25-19.38,5.26-45.22,0-59.33-24.29-91.74T251.92,156q-43.78,0-69.86,31.1T156,280.18q0,72.49,37.34,103.84,24.17,20.34,57.92,20.34A94.58,94.58,0,0,0,275.65,401.24Z"/><path class="cls-2" d="M539.51,196.2V353.4q0,22.25,5.24,33.49,9.29,19.86,36.42,19.86,34.76,0,47.62-28.23,6.66-15.31,6.66-40.44V196.2H704.6V457H638.32V420.15c-.63.8-2.23,3.19-4.77,7.18a47.48,47.48,0,0,1-9.06,10.52q-16,14.36-30.9,19.62t-35,5.27q-57.74,0-77.78-41.63-11.22-23-11.21-67.71V196.2Z"/><path class="cls-2" d="M841,165.1H771.83V102.18H841Zm-69.15,31.1H841V457H771.83Z"/><path class="cls-2" d="M892.18,251.71V196.2h206.24v56.71L970.45,401H1103v56H883.09V403.88l129.27-152.17Z"/></g><text class="cls-3" transform="translate(17.71 444.67)">Quiz</text><text class="cls-4" transform="translate(17.71 394.17)">Quiz</text><polygon class="cls-5" points="399.26 429.57 399.26 379.2 376.18 389.2 360.18 408.2 379.51 437.2 399.26 429.57"/><polygon class="cls-5" points="197.76 299.03 197.76 344.53 244.26 336.53 212.26 303.78 197.76 299.03"/></svg>