<svg id="Layer_1" data-name="Layer 1" xmlns="http://www.w3.org/2000/svg" viewBox="0 0 605.88 479.4"><defs><style>.cls-1{fill:#070707;opacity:0.3;}.cls-2{fill:#b24d9f;}.cls-3{fill:#cc54b0;stroke:#b24d9f;stroke-miterlimit:10;stroke-width:30px;}</style></defs><title>quiz_fraga_app</title><path class="cls-1" d="M517.87,275.4A155.37,155.37,0,0,1,362.51,430.77c-20.65,0-72.54,0-92.89,0-56.88-23.07-62.48-90.17-62.48-155.33a155.37,155.37,0,1,1,310.73,0Z"/><path class="cls-2" d="M459.93,260.71a170.06,170.06,0,1,1-340.11,0c0-33.74.16-33.71,0-57.54C150,156,229.7,90.66,289.87,90.66c58.7,0,139.5,66.52,170.06,111.76C460.14,214.67,459.93,225.49,459.93,260.71Z"/><circle class="cls-3" cx="289.87" cy="199.9" r="155.37"/></svg>