<svg id="Layer_1" data-name="Layer 1" xmlns="http://www.w3.org/2000/svg" viewBox="0 0 1608.88 479.4"><defs><style>.cls-1{fill:#070707;opacity:0.3;}.cls-2{fill:#b24d9f;}.cls-3{fill:#cc54b0;stroke:#b24d9f;stroke-miterlimit:10;stroke-width:30px;}</style></defs><title>Quiz_steg_2</title><path class="cls-1" d="M1553.53,284.58A155.37,155.37,0,0,1,1398.16,440c-20.64,0-72.53,0-92.88,0-56.88-23.07-62.48-90.17-62.48-155.33a155.37,155.37,0,1,1,310.73,0Z"/><path class="cls-2" d="M1495.58,269.89a170.06,170.06,0,1,1-340.11,0c0-33.74.16-33.71,0-57.54,30.23-47.16,109.89-112.51,170.06-112.51,58.7,0,139.49,66.52,170,111.76C1495.79,223.85,1495.58,234.67,1495.58,269.89Z"/><circle class="cls-3" cx="1325.53" cy="209.08" r="155.37"/><path class="cls-1" d="M424,284.58A155.37,155.37,0,0,1,268.6,440c-20.64,0-72.53,0-92.88,0-56.88-23.07-62.49-90.17-62.49-155.33a155.37,155.37,0,0,1,310.74,0Z"/><path class="cls-2" d="M366,269.89a170.06,170.06,0,1,1-340.11,0c0-33.74.16-33.71,0-57.54C56.14,165.19,135.79,99.84,196,99.84c58.7,0,139.49,66.52,170,111.76C366.23,223.85,366,234.67,366,269.89Z"/><circle class="cls-3" cx="195.97" cy="209.08" r="155.37"/><circle class="cls-3" cx="744.06" cy="264.58" r="155.37"/></svg>