<svg id="Layer_1" data-name="Layer 1" xmlns="http://www.w3.org/2000/svg" viewBox="0 0 1121.64 497.28"><defs><style>.cls-1{opacity:0.3;}.cls-2{fill:#050505;}.cls-3,.cls-4{font-size:490px;stroke:#aa3b2d;stroke-miterlimit:10;stroke-width:25px;font-family:Helvetica-Bold, Helvetica;font-weight:700;}.cls-3,.cls-5{fill:#aa3b2d;}.cls-4{fill:#c64934;}</style></defs><title>Quiz_logo</title><g class="cls-1"><path class="cls-2" d="M409.35,351.46q-9.3,30.33-27.42,50.39L422.42,440,384,480.08l-40.48,4c1-34-26-30.85-35.4-27.65q-23.72,7.92-56.76,7.93-69,0-114-41.15-54.6-49.53-54.6-145.47,0-96.66,56-146.19,45.7-40.43,113.65-40.43,68.43,0,114.85,42.82,53.58,49.53,53.59,138.53Q420.84,319.65,409.35,351.46Zm-133.7,47.36a120,120,0,0,0,16.52-6l-35.7-33.95,37.86-39.53,35.84,33.75q8.37-17.22,11.72-30.14,5.25-19.38,5.26-45.21,0-59.33-24.29-91.74t-70.94-32.42q-43.78,0-69.86,31.11T156,277.77q0,72.5,37.34,103.83,24.17,20.34,57.92,20.34A94.58,94.58,0,0,0,275.65,398.82Z"/><path class="cls-2" d="M539.51,193.79V351q0,22.25,5.24,33.5,9.29,19.86,36.42,19.85,34.76,0,47.62-28.23,6.66-15.3,6.66-40.43V193.79H704.6V454.58H638.32V417.73c-.63.8-2.23,3.2-4.77,7.18a47.76,47.76,0,0,1-9.06,10.53q-16,14.35-30.9,19.62t-35,5.26q-57.74,0-77.78-41.63-11.22-23-11.21-67.71V193.79Z"/><path class="cls-2" d="M841,162.68H771.83V99.76H841Zm-69.15,31.11H841V454.58H771.83Z"/><path class="cls-2" d="M892.18,249.3V193.79h206.24v56.7l-128,148.1H1103v56H883.09V401.46L1012.36,249.3Z"/></g><text class="cls-3" transform="translate(17.71 442.25)">Quiz</text><text class="cls-4" transform="translate(17.71 391.75)">Quiz</text><polygon class="cls-5" points="399.26 427.15 399.26 376.78 376.18 386.78 360.18 405.78 379.51 434.78 399.26 427.15"/><polygon class="cls-5" points="197.76 296.61 197.76 342.11 244.26 334.11 212.26 301.36 197.76 296.61"/></svg>