<svg id="Layer_1" data-name="Layer 1" xmlns="http://www.w3.org/2000/svg" viewBox="0 0 1841.63 927.74"><defs><style>.cls-1{opacity:0.3;}.cls-2{fill:#050505;}.cls-3,.cls-4{font-size:490px;stroke:#2b6ea0;stroke-miterlimit:10;stroke-width:25px;font-family:Helvetica-Bold, Helvetica;font-weight:700;}.cls-3,.cls-5{fill:#2b6ea0;}.cls-4{fill:#3580c4;}</style></defs><title>Quiz_logo_Video</title><g class="cls-1"><path class="cls-2" d="M727.31,527.89q-9.3,30.35-27.43,50.4l40.49,38.13L702,656.52l-40.49,4c1-34-26-30.86-35.39-27.65q-23.72,7.92-56.76,7.92-69,0-114-41.15-54.6-49.53-54.6-145.47,0-96.66,56-146.19,45.69-40.42,113.65-40.43,68.42,0,114.84,42.83,53.59,49.51,53.59,138.53Q738.79,496.07,727.31,527.89Zm-133.7,47.37a121.6,121.6,0,0,0,16.51-6l-35.7-34,37.86-39.53,35.85,33.76q8.36-17.22,11.71-30.15,5.26-19.36,5.26-45.21,0-59.32-24.28-91.74T569.88,330q-43.78,0-69.87,31.1T473.94,454.2q0,72.49,37.33,103.84,24.18,20.34,57.92,20.34A94.66,94.66,0,0,0,593.61,575.26Z"/><path class="cls-2" d="M857.47,370.22V527.41q0,22.26,5.23,33.5,9.28,19.86,36.43,19.86,34.75,0,47.61-28.23,6.66-15.31,6.67-40.44V370.22h69.14V631H956.28V594.17q-1,1.2-4.77,7.17a48.07,48.07,0,0,1-9.07,10.53q-16,14.36-30.89,19.62t-35,5.26q-57.74,0-77.78-41.63-11.2-23-11.21-67.71V370.22Z"/><path class="cls-2" d="M1158.93,339.12h-69.15V276.19h69.15Zm-69.15,31.1h69.15V631h-69.15Z"/><path class="cls-2" d="M1210.13,425.73V370.22h206.24v56.71l-128,148.1h132.51v56H1201V577.9l129.27-152.17Z"/></g><text class="cls-3" transform="translate(335.66 618.69)">Quiz</text><text class="cls-4" transform="translate(335.66 568.19)">Quiz</text><polygon class="cls-5" points="717.22 603.59 717.22 553.21 694.13 563.21 678.13 582.21 697.47 611.21 717.22 603.59"/><polygon class="cls-5" points="515.72 473.05 515.72 518.55 562.22 510.55 530.22 477.8 515.72 473.05"/></svg>