<svg id="Layer_1" data-name="Layer 1" xmlns="http://www.w3.org/2000/svg" viewBox="0 0 441.09 431.67"><defs><style>.cls-1{fill:#070707;opacity:0.3;}.cls-2{fill:#b24d9f;}.cls-3{fill:#cc54b0;stroke:#b24d9f;stroke-miterlimit:10;stroke-width:30px;}</style></defs><title>timer</title><path class="cls-1" d="M417,260.07A155.37,155.37,0,0,1,261.65,415.44c-20.65,0-72.54,0-92.89,0-56.88-23.07-62.48-90.17-62.48-155.33a155.37,155.37,0,1,1,310.73,0Z"/><path class="cls-2" d="M359.07,245.38a170.06,170.06,0,1,1-340.11,0c0-33.74.16-33.71,0-57.54C49.18,140.68,128.84,75.33,189,75.33c58.7,0,139.5,66.52,170.06,111.76C359.28,199.34,359.07,210.16,359.07,245.38Z"/><circle class="cls-3" cx="189.01" cy="184.57" r="155.37"/><polygon class="cls-2" points="189.06 37.88 189.06 184.57 298.89 294.4 333.62 241.49 343.84 171.68 327.04 113.19 272.31 53.4 207.7 30.33 189.06 37.88"/></svg>